<mxfile host="app.diagrams.net" modified="2020-09-29T00:19:04.361Z" agent="5.0 (Macintosh)" etag="CcRQFQ2vMrmv2jQaoMdJ" version="13.7.6" type="github" pages="6">
  <diagram id="C5RBs43oDa-KdzZeNtuy" name="System">
    <mxGraphModel dx="1492" dy="1191" grid="1" gridSize="10" guides="1" tooltips="1" connect="1" arrows="1" fold="1" page="1" pageScale="1" pageWidth="1100" pageHeight="850" math="0" shadow="0">
      <root>
        <mxCell id="WIyWlLk6GJQsqaUBKTNV-0" />
        <mxCell id="WIyWlLk6GJQsqaUBKTNV-1" parent="WIyWlLk6GJQsqaUBKTNV-0" />
        <mxCell id="5hmQ5DSzBUYqiyDB-VIv-1" value="" style="rounded=0;whiteSpace=wrap;html=1;" parent="WIyWlLk6GJQsqaUBKTNV-1" vertex="1">
          <mxGeometry x="365" y="160" width="329" height="210" as="geometry" />
        </mxCell>
        <mxCell id="5hmQ5DSzBUYqiyDB-VIv-2" value="Ad Display Screen" style="rounded=0;whiteSpace=wrap;html=1;" parent="WIyWlLk6GJQsqaUBKTNV-1" vertex="1">
          <mxGeometry x="374" y="170" width="200" height="160" as="geometry" />
        </mxCell>
        <mxCell id="5hmQ5DSzBUYqiyDB-VIv-4" value="Logo" style="rounded=0;whiteSpace=wrap;html=1;fillColor=#d5e8d4;strokeColor=#82b366;" parent="WIyWlLk6GJQsqaUBKTNV-1" vertex="1">
          <mxGeometry x="584" y="170" width="100" height="40" as="geometry" />
        </mxCell>
        <mxCell id="5hmQ5DSzBUYqiyDB-VIv-5" value="clock" style="ellipse;whiteSpace=wrap;html=1;aspect=fixed;" parent="WIyWlLk6GJQsqaUBKTNV-1" vertex="1">
          <mxGeometry x="614" y="220" width="40" height="40" as="geometry" />
        </mxCell>
        <mxCell id="5hmQ5DSzBUYqiyDB-VIv-6" value="Album Image" style="rounded=0;whiteSpace=wrap;html=1;fillColor=#dae8fc;strokeColor=#6c8ebf;align=center;verticalAlign=top;" parent="WIyWlLk6GJQsqaUBKTNV-1" vertex="1">
          <mxGeometry x="584" y="270" width="100" height="60" as="geometry" />
        </mxCell>
        <mxCell id="5hmQ5DSzBUYqiyDB-VIv-7" value="PI" style="rounded=0;whiteSpace=wrap;html=1;" parent="WIyWlLk6GJQsqaUBKTNV-1" vertex="1">
          <mxGeometry x="470" y="372" width="120" height="40" as="geometry" />
        </mxCell>
        <mxCell id="5hmQ5DSzBUYqiyDB-VIv-8" value="Internet" style="ellipse;shape=cloud;whiteSpace=wrap;html=1;" parent="WIyWlLk6GJQsqaUBKTNV-1" vertex="1">
          <mxGeometry x="464" y="462" width="120" height="80" as="geometry" />
        </mxCell>
        <mxCell id="5hmQ5DSzBUYqiyDB-VIv-9" value="Balena" style="rounded=0;whiteSpace=wrap;html=1;" parent="WIyWlLk6GJQsqaUBKTNV-1" vertex="1">
          <mxGeometry x="470" y="592" width="120" height="60" as="geometry" />
        </mxCell>
        <mxCell id="5hmQ5DSzBUYqiyDB-VIv-13" value="" style="endArrow=classic;startArrow=classic;html=1;entryX=0.5;entryY=1;entryDx=0;entryDy=0;exitX=0.4;exitY=0.1;exitDx=0;exitDy=0;exitPerimeter=0;" parent="WIyWlLk6GJQsqaUBKTNV-1" source="5hmQ5DSzBUYqiyDB-VIv-8" target="5hmQ5DSzBUYqiyDB-VIv-7" edge="1">
          <mxGeometry width="50" height="50" relative="1" as="geometry">
            <mxPoint x="270" y="527" as="sourcePoint" />
            <mxPoint x="320" y="477" as="targetPoint" />
          </mxGeometry>
        </mxCell>
        <mxCell id="5hmQ5DSzBUYqiyDB-VIv-14" value="" style="endArrow=classic;startArrow=classic;html=1;entryX=0.55;entryY=0.95;entryDx=0;entryDy=0;entryPerimeter=0;exitX=0.5;exitY=0;exitDx=0;exitDy=0;" parent="WIyWlLk6GJQsqaUBKTNV-1" source="5hmQ5DSzBUYqiyDB-VIv-9" target="5hmQ5DSzBUYqiyDB-VIv-8" edge="1">
          <mxGeometry width="50" height="50" relative="1" as="geometry">
            <mxPoint x="270" y="641" as="sourcePoint" />
            <mxPoint x="320" y="591" as="targetPoint" />
          </mxGeometry>
        </mxCell>
        <mxCell id="5hmQ5DSzBUYqiyDB-VIv-15" value="" style="endArrow=classic;startArrow=classic;html=1;exitX=0.875;exitY=0.5;exitDx=0;exitDy=0;exitPerimeter=0;" parent="WIyWlLk6GJQsqaUBKTNV-1" source="5hmQ5DSzBUYqiyDB-VIv-8" target="5hmQ5DSzBUYqiyDB-VIv-17" edge="1">
          <mxGeometry width="50" height="50" relative="1" as="geometry">
            <mxPoint x="670" y="671" as="sourcePoint" />
            <mxPoint x="660" y="502" as="targetPoint" />
          </mxGeometry>
        </mxCell>
        <mxCell id="5hmQ5DSzBUYqiyDB-VIv-16" value="" style="endArrow=none;dashed=1;html=1;exitX=1;exitY=0.5;exitDx=0;exitDy=0;" parent="WIyWlLk6GJQsqaUBKTNV-1" source="5hmQ5DSzBUYqiyDB-VIv-9" target="5hmQ5DSzBUYqiyDB-VIv-17" edge="1">
          <mxGeometry width="50" height="50" relative="1" as="geometry">
            <mxPoint x="610" y="701" as="sourcePoint" />
            <mxPoint x="720" y="532" as="targetPoint" />
          </mxGeometry>
        </mxCell>
        <mxCell id="5hmQ5DSzBUYqiyDB-VIv-17" value="" style="outlineConnect=0;dashed=0;verticalLabelPosition=bottom;verticalAlign=top;align=center;html=1;shape=mxgraph.aws3.cloud_2;fillColor=#F58534;gradientColor=none;" parent="WIyWlLk6GJQsqaUBKTNV-1" vertex="1">
          <mxGeometry x="660" y="465" width="75" height="75" as="geometry" />
        </mxCell>
        <mxCell id="5hmQ5DSzBUYqiyDB-VIv-18" value="Scrollbar" style="rounded=0;whiteSpace=wrap;html=1;fillColor=#fff2cc;strokeColor=#d6b656;" parent="WIyWlLk6GJQsqaUBKTNV-1" vertex="1">
          <mxGeometry x="366" y="338" width="328" height="30" as="geometry" />
        </mxCell>
        <mxCell id="5hmQ5DSzBUYqiyDB-VIv-19" value="Artist Info" style="rounded=0;whiteSpace=wrap;html=1;fillColor=#f5f5f5;strokeColor=#666666;fontColor=#333333;" parent="WIyWlLk6GJQsqaUBKTNV-1" vertex="1">
          <mxGeometry x="584" y="300" width="100" height="30" as="geometry" />
        </mxCell>
        <mxCell id="7Yiucp4L1eFtwj1LYn0T-0" value="&lt;b&gt;&lt;font style=&quot;font-size: 24px&quot;&gt;System Design&lt;/font&gt;&lt;/b&gt;" style="text;whiteSpace=wrap;html=1;" parent="WIyWlLk6GJQsqaUBKTNV-1" vertex="1">
          <mxGeometry x="454" y="30" width="216" height="30" as="geometry" />
        </mxCell>
        <mxCell id="2Gg5BYo-l_t1qAwC0yFb-0" value="Client" style="shape=actor;whiteSpace=wrap;html=1;strokeColor=#27BA45;strokeWidth=2;verticalAlign=bottom;" parent="WIyWlLk6GJQsqaUBKTNV-1" vertex="1">
          <mxGeometry x="190" y="190" width="40" height="60" as="geometry" />
        </mxCell>
        <mxCell id="2Gg5BYo-l_t1qAwC0yFb-1" value="Client" style="shape=actor;whiteSpace=wrap;html=1;strokeColor=#27BA45;strokeWidth=2;verticalAlign=bottom;" parent="WIyWlLk6GJQsqaUBKTNV-1" vertex="1">
          <mxGeometry x="130" y="250" width="40" height="60" as="geometry" />
        </mxCell>
        <mxCell id="2Gg5BYo-l_t1qAwC0yFb-2" value="Client" style="shape=actor;whiteSpace=wrap;html=1;strokeColor=#27BA45;strokeWidth=2;verticalAlign=bottom;" parent="WIyWlLk6GJQsqaUBKTNV-1" vertex="1">
          <mxGeometry x="90" y="338" width="40" height="60" as="geometry" />
        </mxCell>
        <mxCell id="2Gg5BYo-l_t1qAwC0yFb-3" value="Client" style="shape=actor;whiteSpace=wrap;html=1;strokeColor=#27BA45;strokeWidth=2;verticalAlign=bottom;" parent="WIyWlLk6GJQsqaUBKTNV-1" vertex="1">
          <mxGeometry x="50" y="425" width="40" height="60" as="geometry" />
        </mxCell>
        <mxCell id="2Gg5BYo-l_t1qAwC0yFb-4" value="" style="endArrow=classic;startArrow=classic;html=1;exitX=0.875;exitY=0.5;exitDx=0;exitDy=0;exitPerimeter=0;entryX=0;entryY=0.5;entryDx=0;entryDy=0;" parent="WIyWlLk6GJQsqaUBKTNV-1" target="5hmQ5DSzBUYqiyDB-VIv-2" edge="1">
          <mxGeometry width="50" height="50" relative="1" as="geometry">
            <mxPoint x="220" y="220" as="sourcePoint" />
            <mxPoint x="311" y="220.35408560311294" as="targetPoint" />
          </mxGeometry>
        </mxCell>
        <mxCell id="2Gg5BYo-l_t1qAwC0yFb-5" value="" style="endArrow=classic;startArrow=classic;html=1;exitX=1;exitY=0.75;exitDx=0;exitDy=0;" parent="WIyWlLk6GJQsqaUBKTNV-1" source="2Gg5BYo-l_t1qAwC0yFb-1" edge="1">
          <mxGeometry width="50" height="50" relative="1" as="geometry">
            <mxPoint x="230" y="230" as="sourcePoint" />
            <mxPoint x="370" y="250" as="targetPoint" />
          </mxGeometry>
        </mxCell>
        <mxCell id="2Gg5BYo-l_t1qAwC0yFb-6" value="" style="endArrow=classic;startArrow=classic;html=1;exitX=1;exitY=0.75;exitDx=0;exitDy=0;entryX=0;entryY=0.5;entryDx=0;entryDy=0;" parent="WIyWlLk6GJQsqaUBKTNV-1" source="2Gg5BYo-l_t1qAwC0yFb-2" target="5hmQ5DSzBUYqiyDB-VIv-2" edge="1">
          <mxGeometry width="50" height="50" relative="1" as="geometry">
            <mxPoint x="180" y="305" as="sourcePoint" />
            <mxPoint x="380" y="260" as="targetPoint" />
          </mxGeometry>
        </mxCell>
        <mxCell id="2Gg5BYo-l_t1qAwC0yFb-7" value="" style="endArrow=classic;startArrow=classic;html=1;exitX=0.9;exitY=0.5;exitDx=0;exitDy=0;entryX=0;entryY=0.5;entryDx=0;entryDy=0;exitPerimeter=0;" parent="WIyWlLk6GJQsqaUBKTNV-1" source="2Gg5BYo-l_t1qAwC0yFb-3" target="5hmQ5DSzBUYqiyDB-VIv-2" edge="1">
          <mxGeometry width="50" height="50" relative="1" as="geometry">
            <mxPoint x="140" y="393" as="sourcePoint" />
            <mxPoint x="384" y="260" as="targetPoint" />
          </mxGeometry>
        </mxCell>
      </root>
    </mxGraphModel>
  </diagram>
  <diagram id="5UtCI82TBNICQu7yevce" name="TV-Display">
    <mxGraphModel dx="1745" dy="1003" grid="1" gridSize="10" guides="1" tooltips="1" connect="1" arrows="1" fold="1" page="1" pageScale="1" pageWidth="1100" pageHeight="850" math="0" shadow="0">
      <root>
        <mxCell id="J3TbXGQVUZQCFPEXXfmA-0" />
        <mxCell id="J3TbXGQVUZQCFPEXXfmA-1" parent="J3TbXGQVUZQCFPEXXfmA-0" />
        <mxCell id="MJg0ZHP90QXAoha2s7KH-0" value="" style="rounded=0;whiteSpace=wrap;html=1;strokeColor=#E84615;fontColor=#333333;strokeWidth=2;fillColor=#000000;" vertex="1" parent="J3TbXGQVUZQCFPEXXfmA-1">
          <mxGeometry x="380" y="220" width="410" height="330" as="geometry" />
        </mxCell>
        <mxCell id="MJg0ZHP90QXAoha2s7KH-1" value="" style="rounded=0;whiteSpace=wrap;html=1;strokeWidth=1;fillColor=none;strokeColor=#FFF;" vertex="1" parent="J3TbXGQVUZQCFPEXXfmA-1">
          <mxGeometry x="670" y="337" width="110" height="173" as="geometry" />
        </mxCell>
        <mxCell id="MJg0ZHP90QXAoha2s7KH-2" value="AdDisplay" style="rounded=0;whiteSpace=wrap;html=1;fillColor=#dae8fc;strokeColor=#6c8ebf;strokeWidth=2;" vertex="1" parent="J3TbXGQVUZQCFPEXXfmA-1">
          <mxGeometry x="390" y="230" width="270" height="280" as="geometry" />
        </mxCell>
        <mxCell id="MJg0ZHP90QXAoha2s7KH-3" value="Logo" style="ellipse;whiteSpace=wrap;html=1;aspect=fixed;" vertex="1" parent="J3TbXGQVUZQCFPEXXfmA-1">
          <mxGeometry x="699" y="233" width="50" height="50" as="geometry" />
        </mxCell>
        <mxCell id="MJg0ZHP90QXAoha2s7KH-4" value="Scrollbar" style="rounded=0;whiteSpace=wrap;html=1;fillColor=#fff2cc;strokeColor=#d6b656;" vertex="1" parent="J3TbXGQVUZQCFPEXXfmA-1">
          <mxGeometry x="385" y="516" width="400" height="30" as="geometry" />
        </mxCell>
        <mxCell id="MJg0ZHP90QXAoha2s7KH-5" value="&lt;div style=&quot;text-align: left&quot;&gt;&lt;span style=&quot;font-size: 10px ; color: rgb(255 , 255 , 255)&quot;&gt;Artist: Blue October&lt;/span&gt;&lt;/div&gt;&lt;font color=&quot;#ffffff&quot; style=&quot;font-size: 10px&quot;&gt;&lt;div style=&quot;text-align: left&quot;&gt;&lt;span&gt;Song: Oh My My&lt;/span&gt;&lt;/div&gt;&lt;div style=&quot;text-align: left&quot;&gt;&lt;span&gt;Album: This is what I live for&lt;/span&gt;&lt;/div&gt;&lt;/font&gt;" style="rounded=0;whiteSpace=wrap;html=1;strokeColor=#9673a6;fillColor=none;" vertex="1" parent="J3TbXGQVUZQCFPEXXfmA-1">
          <mxGeometry x="674" y="447" width="100" height="58" as="geometry" />
        </mxCell>
        <mxCell id="MJg0ZHP90QXAoha2s7KH-6" value="AlbumImage" style="rounded=0;whiteSpace=wrap;html=1;fillColor=#f5f5f5;strokeColor=#666666;fontColor=#333333;" vertex="1" parent="J3TbXGQVUZQCFPEXXfmA-1">
          <mxGeometry x="674" y="367" width="100" height="70" as="geometry" />
        </mxCell>
        <mxCell id="MJg0ZHP90QXAoha2s7KH-7" value="&lt;font color=&quot;#ffffff&quot;&gt;11:44:56&lt;/font&gt;" style="text;html=1;align=center;verticalAlign=middle;whiteSpace=wrap;rounded=0;" vertex="1" parent="J3TbXGQVUZQCFPEXXfmA-1">
          <mxGeometry x="670" y="297" width="110" height="20" as="geometry" />
        </mxCell>
        <mxCell id="MJg0ZHP90QXAoha2s7KH-8" value="&lt;font color=&quot;#ffffff&quot;&gt;NOW PLAYING&lt;/font&gt;" style="text;html=1;align=center;verticalAlign=middle;whiteSpace=wrap;rounded=0;" vertex="1" parent="J3TbXGQVUZQCFPEXXfmA-1">
          <mxGeometry x="669" y="345" width="110" height="20" as="geometry" />
        </mxCell>
        <mxCell id="MJg0ZHP90QXAoha2s7KH-9" value="&lt;font size=&quot;1&quot;&gt;&lt;b style=&quot;font-size: 20px&quot;&gt;How the application would be viewed on the TV&lt;/b&gt;&lt;/font&gt;" style="text;html=1;strokeColor=none;fillColor=none;align=center;verticalAlign=middle;whiteSpace=wrap;rounded=0;" vertex="1" parent="J3TbXGQVUZQCFPEXXfmA-1">
          <mxGeometry x="330" y="90" width="470" height="20" as="geometry" />
        </mxCell>
      </root>
    </mxGraphModel>
  </diagram>
  <diagram id="IybOEvGivT2IyE9eoCxh" name="Main Page Layout">
    <mxGraphModel dx="1745" dy="1003" grid="1" gridSize="10" guides="1" tooltips="1" connect="1" arrows="1" fold="1" page="1" pageScale="1" pageWidth="1100" pageHeight="850" math="0" shadow="0">
      <root>
        <mxCell id="C1Ms88KdtlTtcPahN271-0" />
        <mxCell id="C1Ms88KdtlTtcPahN271-1" parent="C1Ms88KdtlTtcPahN271-0" />
        <mxCell id="Pa8HHfKZfp97AdbGA1P9-0" value="" style="rounded=0;whiteSpace=wrap;html=1;fillColor=#f5f5f5;strokeColor=#E84615;fontColor=#333333;strokeWidth=2;" parent="C1Ms88KdtlTtcPahN271-1" vertex="1">
          <mxGeometry x="151" y="180" width="410" height="330" as="geometry" />
        </mxCell>
        <mxCell id="Pa8HHfKZfp97AdbGA1P9-1" value="" style="rounded=0;whiteSpace=wrap;html=1;strokeColor=#36393d;strokeWidth=2;fillColor=#ffff88;" parent="C1Ms88KdtlTtcPahN271-1" vertex="1">
          <mxGeometry x="441" y="190" width="110" height="280" as="geometry" />
        </mxCell>
        <mxCell id="Pa8HHfKZfp97AdbGA1P9-2" value="video" style="rounded=0;whiteSpace=wrap;html=1;fillColor=#dae8fc;strokeColor=#6c8ebf;strokeWidth=2;" parent="C1Ms88KdtlTtcPahN271-1" vertex="1">
          <mxGeometry x="161" y="190" width="270" height="280" as="geometry" />
        </mxCell>
        <mxCell id="Pa8HHfKZfp97AdbGA1P9-5" value="scrollbar" style="rounded=0;whiteSpace=wrap;html=1;fillColor=#fff2cc;strokeColor=#d6b656;" parent="C1Ms88KdtlTtcPahN271-1" vertex="1">
          <mxGeometry x="150" y="477" width="410" height="30" as="geometry" />
        </mxCell>
        <mxCell id="rWErn2Eo8IhZO66VQZWP-0" value="&lt;h1&gt;Things to think about&lt;/h1&gt;&lt;p&gt;&lt;/p&gt;&lt;ul&gt;&lt;li&gt;The app will be displayed on a 32 inch screen.&lt;/li&gt;&lt;li&gt;How much space should the AdDisplay component occupied on the screen&lt;/li&gt;&lt;li&gt;How much space the Scrollbar component will occupied&lt;/li&gt;&lt;li&gt;How much space the&amp;nbsp;&lt;/li&gt;&lt;/ul&gt;&lt;p&gt;&lt;/p&gt;" style="text;html=1;strokeColor=none;fillColor=none;spacing=5;spacingTop=-20;whiteSpace=wrap;overflow=hidden;rounded=0;" parent="C1Ms88KdtlTtcPahN271-1" vertex="1">
          <mxGeometry x="60" y="630" width="460" height="120" as="geometry" />
        </mxCell>
        <mxCell id="B1uHeAPSa1UdEAluYLfT-0" value="&lt;b&gt;&lt;font style=&quot;font-size: 24px&quot;&gt;Main Page Layout&lt;/font&gt;&lt;/b&gt;" style="text;whiteSpace=wrap;html=1;" parent="C1Ms88KdtlTtcPahN271-1" vertex="1">
          <mxGeometry x="225.5" y="110" width="300" height="30" as="geometry" />
        </mxCell>
        <mxCell id="Gj2q_U7Is6mJn24QRnnw-7" value="Logo" style="rounded=0;whiteSpace=wrap;html=1;fillColor=#d5e8d4;strokeColor=#82b366;" parent="C1Ms88KdtlTtcPahN271-1" vertex="1">
          <mxGeometry x="450" y="210" width="91" height="40" as="geometry" />
        </mxCell>
        <mxCell id="Gj2q_U7Is6mJn24QRnnw-8" value="00:00:00 PM" style="rounded=0;whiteSpace=wrap;html=1;fillColor=#ffcc99;strokeColor=#36393d;" parent="C1Ms88KdtlTtcPahN271-1" vertex="1">
          <mxGeometry x="450" y="260" width="90" height="30" as="geometry" />
        </mxCell>
        <mxCell id="Gj2q_U7Is6mJn24QRnnw-9" value="" style="rounded=0;whiteSpace=wrap;html=1;fillColor=#e1d5e7;strokeColor=#9673a6;align=center;verticalAlign=top;" parent="C1Ms88KdtlTtcPahN271-1" vertex="1">
          <mxGeometry x="451" y="350" width="90" height="100" as="geometry" />
        </mxCell>
        <mxCell id="Gj2q_U7Is6mJn24QRnnw-10" value="carib-ad-album" style="rounded=0;whiteSpace=wrap;html=1;fillColor=#e1d5e7;strokeColor=#9673a6;align=center;verticalAlign=top;" parent="C1Ms88KdtlTtcPahN271-1" vertex="1">
          <mxGeometry x="724.5" y="330" width="120" height="30" as="geometry" />
        </mxCell>
        <mxCell id="Gj2q_U7Is6mJn24QRnnw-11" value="Album Image" style="rounded=0;whiteSpace=wrap;html=1;fillColor=#f5f5f5;strokeColor=#666666;align=center;verticalAlign=top;fontColor=#333333;" parent="C1Ms88KdtlTtcPahN271-1" vertex="1">
          <mxGeometry x="456" y="360" width="80" height="30" as="geometry" />
        </mxCell>
        <mxCell id="Gj2q_U7Is6mJn24QRnnw-14" value="Artist Info" style="rounded=0;whiteSpace=wrap;html=1;fillColor=#cdeb8b;strokeColor=#36393d;align=center;verticalAlign=top;" parent="C1Ms88KdtlTtcPahN271-1" vertex="1">
          <mxGeometry x="456" y="410" width="80" height="30" as="geometry" />
        </mxCell>
        <mxCell id="Gj2q_U7Is6mJn24QRnnw-15" value="carib-ad-container" style="rounded=0;whiteSpace=wrap;html=1;fillColor=#f5f5f5;strokeColor=#E84615;fontColor=#333333;strokeWidth=2;" parent="C1Ms88KdtlTtcPahN271-1" vertex="1">
          <mxGeometry x="625.5" y="130" width="120" height="30" as="geometry" />
        </mxCell>
        <mxCell id="Gj2q_U7Is6mJn24QRnnw-16" value="carid-ad-video" style="rounded=0;whiteSpace=wrap;html=1;fillColor=#dae8fc;strokeColor=#6c8ebf;strokeWidth=2;" parent="C1Ms88KdtlTtcPahN271-1" vertex="1">
          <mxGeometry x="676.5" y="180" width="120" height="30" as="geometry" />
        </mxCell>
        <mxCell id="Gj2q_U7Is6mJn24QRnnw-17" value="carib-ad-scrollbar" style="rounded=0;whiteSpace=wrap;html=1;fillColor=#fff2cc;strokeColor=#d6b656;" parent="C1Ms88KdtlTtcPahN271-1" vertex="1">
          <mxGeometry x="676.5" y="230" width="120" height="30" as="geometry" />
        </mxCell>
        <mxCell id="Gj2q_U7Is6mJn24QRnnw-18" value="carib-ad-sidebar" style="rounded=0;whiteSpace=wrap;html=1;fillColor=#ffff88;strokeColor=#36393d;" parent="C1Ms88KdtlTtcPahN271-1" vertex="1">
          <mxGeometry x="676.5" y="280" width="120" height="30" as="geometry" />
        </mxCell>
        <mxCell id="Gj2q_U7Is6mJn24QRnnw-19" value="carib-ad-album-image" style="rounded=0;whiteSpace=wrap;html=1;align=center;verticalAlign=top;fillColor=#f5f5f5;strokeColor=#666666;fontColor=#333333;" parent="C1Ms88KdtlTtcPahN271-1" vertex="1">
          <mxGeometry x="771.5" y="380" width="120" height="30" as="geometry" />
        </mxCell>
        <mxCell id="Gj2q_U7Is6mJn24QRnnw-20" value="carib-ad-artist-info" style="rounded=0;whiteSpace=wrap;html=1;align=center;verticalAlign=top;fillColor=#cdeb8b;strokeColor=#36393d;" parent="C1Ms88KdtlTtcPahN271-1" vertex="1">
          <mxGeometry x="771.5" y="427" width="120" height="30" as="geometry" />
        </mxCell>
        <mxCell id="Gj2q_U7Is6mJn24QRnnw-21" value="carib-ad-logo" style="rounded=0;whiteSpace=wrap;html=1;align=center;verticalAlign=top;fillColor=#d5e8d4;strokeColor=#82b366;" parent="C1Ms88KdtlTtcPahN271-1" vertex="1">
          <mxGeometry x="724.5" y="470" width="120" height="30" as="geometry" />
        </mxCell>
        <mxCell id="Gj2q_U7Is6mJn24QRnnw-22" value="carib-ad-clock" style="rounded=0;whiteSpace=wrap;html=1;align=center;verticalAlign=top;fillColor=#ffcc99;strokeColor=#36393d;" parent="C1Ms88KdtlTtcPahN271-1" vertex="1">
          <mxGeometry x="724.5" y="520" width="120" height="30" as="geometry" />
        </mxCell>
        <mxCell id="Gj2q_U7Is6mJn24QRnnw-23" value="" style="endArrow=none;html=1;entryX=0.178;entryY=1.059;entryDx=0;entryDy=0;entryPerimeter=0;" parent="C1Ms88KdtlTtcPahN271-1" edge="1">
          <mxGeometry width="50" height="50" relative="1" as="geometry">
            <mxPoint x="646" y="300" as="sourcePoint" />
            <mxPoint x="645.8600000000001" y="161.76999999999998" as="targetPoint" />
          </mxGeometry>
        </mxCell>
        <mxCell id="Gj2q_U7Is6mJn24QRnnw-24" value="" style="endArrow=classic;html=1;entryX=0;entryY=0.5;entryDx=0;entryDy=0;" parent="C1Ms88KdtlTtcPahN271-1" target="Gj2q_U7Is6mJn24QRnnw-16" edge="1">
          <mxGeometry relative="1" as="geometry">
            <mxPoint x="645.5" y="195" as="sourcePoint" />
            <mxPoint x="665.5" y="190" as="targetPoint" />
          </mxGeometry>
        </mxCell>
        <mxCell id="Gj2q_U7Is6mJn24QRnnw-27" value="" style="endArrow=classic;html=1;entryX=0;entryY=0.5;entryDx=0;entryDy=0;" parent="C1Ms88KdtlTtcPahN271-1" edge="1">
          <mxGeometry relative="1" as="geometry">
            <mxPoint x="645.5" y="244.41" as="sourcePoint" />
            <mxPoint x="676.5" y="244.41" as="targetPoint" />
          </mxGeometry>
        </mxCell>
        <mxCell id="Gj2q_U7Is6mJn24QRnnw-28" value="" style="endArrow=classic;html=1;entryX=0;entryY=0.5;entryDx=0;entryDy=0;" parent="C1Ms88KdtlTtcPahN271-1" edge="1">
          <mxGeometry relative="1" as="geometry">
            <mxPoint x="645.5" y="299.40999999999997" as="sourcePoint" />
            <mxPoint x="676.5" y="299.40999999999997" as="targetPoint" />
          </mxGeometry>
        </mxCell>
        <mxCell id="Gj2q_U7Is6mJn24QRnnw-29" value="" style="endArrow=none;html=1;entryX=0.178;entryY=1.059;entryDx=0;entryDy=0;entryPerimeter=0;" parent="C1Ms88KdtlTtcPahN271-1" edge="1">
          <mxGeometry width="50" height="50" relative="1" as="geometry">
            <mxPoint x="694" y="540" as="sourcePoint" />
            <mxPoint x="693.8599999999999" y="310" as="targetPoint" />
          </mxGeometry>
        </mxCell>
        <mxCell id="Gj2q_U7Is6mJn24QRnnw-30" value="" style="endArrow=classic;html=1;entryX=0;entryY=0.5;entryDx=0;entryDy=0;" parent="C1Ms88KdtlTtcPahN271-1" edge="1">
          <mxGeometry relative="1" as="geometry">
            <mxPoint x="693.5" y="349" as="sourcePoint" />
            <mxPoint x="724.5" y="349.40999999999985" as="targetPoint" />
          </mxGeometry>
        </mxCell>
        <mxCell id="Gj2q_U7Is6mJn24QRnnw-31" value="" style="endArrow=classic;html=1;entryX=0;entryY=0.5;entryDx=0;entryDy=0;" parent="C1Ms88KdtlTtcPahN271-1" edge="1">
          <mxGeometry relative="1" as="geometry">
            <mxPoint x="693.5" y="489.9999999999999" as="sourcePoint" />
            <mxPoint x="724.5" y="489.9999999999999" as="targetPoint" />
          </mxGeometry>
        </mxCell>
        <mxCell id="Gj2q_U7Is6mJn24QRnnw-32" value="" style="endArrow=classic;html=1;entryX=0;entryY=0.5;entryDx=0;entryDy=0;" parent="C1Ms88KdtlTtcPahN271-1" edge="1">
          <mxGeometry relative="1" as="geometry">
            <mxPoint x="693.5" y="539.4099999999999" as="sourcePoint" />
            <mxPoint x="724.5" y="539.4099999999999" as="targetPoint" />
          </mxGeometry>
        </mxCell>
        <mxCell id="Gj2q_U7Is6mJn24QRnnw-33" value="" style="endArrow=none;html=1;" parent="C1Ms88KdtlTtcPahN271-1" edge="1">
          <mxGeometry width="50" height="50" relative="1" as="geometry">
            <mxPoint x="746" y="440" as="sourcePoint" />
            <mxPoint x="745.5" y="361" as="targetPoint" />
          </mxGeometry>
        </mxCell>
        <mxCell id="Gj2q_U7Is6mJn24QRnnw-34" value="" style="endArrow=classic;html=1;entryX=0;entryY=0.5;entryDx=0;entryDy=0;" parent="C1Ms88KdtlTtcPahN271-1" edge="1">
          <mxGeometry relative="1" as="geometry">
            <mxPoint x="745.5" y="395" as="sourcePoint" />
            <mxPoint x="771.5" y="394.65999999999985" as="targetPoint" />
          </mxGeometry>
        </mxCell>
        <mxCell id="Gj2q_U7Is6mJn24QRnnw-35" value="" style="endArrow=classic;html=1;entryX=0;entryY=0.5;entryDx=0;entryDy=0;" parent="C1Ms88KdtlTtcPahN271-1" edge="1">
          <mxGeometry relative="1" as="geometry">
            <mxPoint x="745.5" y="440.65999999999985" as="sourcePoint" />
            <mxPoint x="776.5" y="440.65999999999985" as="targetPoint" />
          </mxGeometry>
        </mxCell>
      </root>
    </mxGraphModel>
  </diagram>
  <diagram id="b3d2qM8_--Gu5SHagzsc" name="Main Display Components">
    <mxGraphModel dx="1745" dy="1003" grid="1" gridSize="10" guides="1" tooltips="1" connect="1" arrows="1" fold="1" page="1" pageScale="1" pageWidth="1100" pageHeight="850" math="0" shadow="0">
      <root>
        <mxCell id="rBeVfT0bV5Oy0sNMRI-G-0" />
        <mxCell id="rBeVfT0bV5Oy0sNMRI-G-1" parent="rBeVfT0bV5Oy0sNMRI-G-0" />
        <mxCell id="-eSUhl5G0mORqdFNdmGg-0" value="" style="rounded=0;whiteSpace=wrap;html=1;strokeColor=#E84615;fontColor=#333333;strokeWidth=2;fillColor=#000000;" parent="rBeVfT0bV5Oy0sNMRI-G-1" vertex="1">
          <mxGeometry x="60" y="253" width="410" height="330" as="geometry" />
        </mxCell>
        <mxCell id="-eSUhl5G0mORqdFNdmGg-10" value="" style="rounded=0;whiteSpace=wrap;html=1;strokeColor=#00B500;strokeWidth=2;" parent="rBeVfT0bV5Oy0sNMRI-G-1" vertex="1">
          <mxGeometry x="350" y="403" width="110" height="140" as="geometry" />
        </mxCell>
        <mxCell id="-eSUhl5G0mORqdFNdmGg-1" value="MediaDisplay" style="rounded=0;whiteSpace=wrap;html=1;fillColor=#dae8fc;strokeColor=#6c8ebf;strokeWidth=2;" parent="rBeVfT0bV5Oy0sNMRI-G-1" vertex="1">
          <mxGeometry x="70" y="263" width="270" height="280" as="geometry" />
        </mxCell>
        <mxCell id="-eSUhl5G0mORqdFNdmGg-2" value="Clock" style="rounded=0;whiteSpace=wrap;html=1;fillColor=#d5e8d4;strokeColor=#82b366;strokeWidth=2;" parent="rBeVfT0bV5Oy0sNMRI-G-1" vertex="1">
          <mxGeometry x="349" y="341" width="111" height="42" as="geometry" />
        </mxCell>
        <mxCell id="-eSUhl5G0mORqdFNdmGg-3" value="Clock" style="ellipse;whiteSpace=wrap;html=1;aspect=fixed;" parent="rBeVfT0bV5Oy0sNMRI-G-1" vertex="1">
          <mxGeometry x="375" y="263" width="60" height="60" as="geometry" />
        </mxCell>
        <mxCell id="-eSUhl5G0mORqdFNdmGg-5" value="Scrollbar" style="rounded=0;whiteSpace=wrap;html=1;fillColor=#fff2cc;strokeColor=#d6b656;" parent="rBeVfT0bV5Oy0sNMRI-G-1" vertex="1">
          <mxGeometry x="65" y="549" width="400" height="30" as="geometry" />
        </mxCell>
        <mxCell id="-eSUhl5G0mORqdFNdmGg-6" value="AlbumArtist" style="rounded=0;whiteSpace=wrap;html=1;fillColor=#e1d5e7;strokeColor=#9673a6;" parent="rBeVfT0bV5Oy0sNMRI-G-1" vertex="1">
          <mxGeometry x="354" y="468" width="100" height="70" as="geometry" />
        </mxCell>
        <mxCell id="-eSUhl5G0mORqdFNdmGg-11" value="AlbumImage" style="rounded=0;whiteSpace=wrap;html=1;fillColor=#f5f5f5;strokeColor=#666666;fontColor=#333333;" parent="rBeVfT0bV5Oy0sNMRI-G-1" vertex="1">
          <mxGeometry x="354" y="408" width="100" height="55" as="geometry" />
        </mxCell>
        <mxCell id="-eSUhl5G0mORqdFNdmGg-13" value="" style="rounded=0;whiteSpace=wrap;html=1;fillColor=#f5f5f5;strokeColor=#E84615;fontColor=#333333;strokeWidth=2;" parent="rBeVfT0bV5Oy0sNMRI-G-1" vertex="1">
          <mxGeometry x="520" y="223" width="60" height="30" as="geometry" />
        </mxCell>
        <mxCell id="-eSUhl5G0mORqdFNdmGg-14" value="Parent of all components or Main Component" style="text;html=1;strokeColor=none;fillColor=none;align=left;verticalAlign=middle;whiteSpace=wrap;rounded=0;" parent="rBeVfT0bV5Oy0sNMRI-G-1" vertex="1">
          <mxGeometry x="609" y="228" width="470" height="20" as="geometry" />
        </mxCell>
        <mxCell id="-eSUhl5G0mORqdFNdmGg-15" value="MediaDisplay" style="rounded=0;whiteSpace=wrap;html=1;fillColor=#dae8fc;strokeColor=#6c8ebf;strokeWidth=2;" parent="rBeVfT0bV5Oy0sNMRI-G-1" vertex="1">
          <mxGeometry x="520" y="276" width="80" height="30" as="geometry" />
        </mxCell>
        <mxCell id="-eSUhl5G0mORqdFNdmGg-16" value="This component is responsible to render the ad videos and ad still images" style="text;html=1;strokeColor=none;fillColor=none;align=left;verticalAlign=middle;whiteSpace=wrap;rounded=0;" parent="rBeVfT0bV5Oy0sNMRI-G-1" vertex="1">
          <mxGeometry x="609" y="281" width="470" height="20" as="geometry" />
        </mxCell>
        <mxCell id="-eSUhl5G0mORqdFNdmGg-17" value="Logo" style="rounded=0;whiteSpace=wrap;html=1;fillColor=#d5e8d4;strokeColor=#82b366;strokeWidth=2;" parent="rBeVfT0bV5Oy0sNMRI-G-1" vertex="1">
          <mxGeometry x="520" y="330" width="80" height="30" as="geometry" />
        </mxCell>
        <mxCell id="-eSUhl5G0mORqdFNdmGg-18" value="This component is responsible to render the business logo. Logo is status." style="text;html=1;strokeColor=none;fillColor=none;align=left;verticalAlign=middle;whiteSpace=wrap;rounded=0;" parent="rBeVfT0bV5Oy0sNMRI-G-1" vertex="1">
          <mxGeometry x="609" y="335" width="470" height="20" as="geometry" />
        </mxCell>
        <mxCell id="-eSUhl5G0mORqdFNdmGg-19" value="Clock" style="ellipse;whiteSpace=wrap;html=1;aspect=fixed;" parent="rBeVfT0bV5Oy0sNMRI-G-1" vertex="1">
          <mxGeometry x="520" y="378" width="40" height="40" as="geometry" />
        </mxCell>
        <mxCell id="-eSUhl5G0mORqdFNdmGg-22" value="This component is responsible to display the current time based on the location of where the ad-display is located. Digital clock." style="text;html=1;strokeColor=none;fillColor=none;align=left;verticalAlign=middle;whiteSpace=wrap;rounded=0;" parent="rBeVfT0bV5Oy0sNMRI-G-1" vertex="1">
          <mxGeometry x="609" y="383" width="470" height="30" as="geometry" />
        </mxCell>
        <mxCell id="-eSUhl5G0mORqdFNdmGg-23" value="" style="rounded=0;whiteSpace=wrap;html=1;strokeColor=#00B500;strokeWidth=2;" parent="rBeVfT0bV5Oy0sNMRI-G-1" vertex="1">
          <mxGeometry x="520" y="436" width="80" height="30" as="geometry" />
        </mxCell>
        <mxCell id="-eSUhl5G0mORqdFNdmGg-24" value="This component is the parent of the album currently been played" style="text;html=1;strokeColor=none;fillColor=none;align=left;verticalAlign=middle;whiteSpace=wrap;rounded=0;" parent="rBeVfT0bV5Oy0sNMRI-G-1" vertex="1">
          <mxGeometry x="609" y="441" width="470" height="20" as="geometry" />
        </mxCell>
        <mxCell id="-eSUhl5G0mORqdFNdmGg-25" value="AlbumImage" style="rounded=0;whiteSpace=wrap;html=1;fillColor=#f5f5f5;strokeColor=#666666;fontColor=#333333;" parent="rBeVfT0bV5Oy0sNMRI-G-1" vertex="1">
          <mxGeometry x="520" y="490" width="80" height="29" as="geometry" />
        </mxCell>
        <mxCell id="-eSUhl5G0mORqdFNdmGg-27" value="This component is responsible to render the album logo" style="text;html=1;strokeColor=none;fillColor=none;align=left;verticalAlign=middle;whiteSpace=wrap;rounded=0;" parent="rBeVfT0bV5Oy0sNMRI-G-1" vertex="1">
          <mxGeometry x="609" y="495" width="470" height="20" as="geometry" />
        </mxCell>
        <mxCell id="-eSUhl5G0mORqdFNdmGg-28" value="AlbumArtist" style="rounded=0;whiteSpace=wrap;html=1;fillColor=#e1d5e7;strokeColor=#9673a6;" parent="rBeVfT0bV5Oy0sNMRI-G-1" vertex="1">
          <mxGeometry x="520" y="543" width="80" height="30" as="geometry" />
        </mxCell>
        <mxCell id="-eSUhl5G0mORqdFNdmGg-29" value="This component is responsible to render the artist information" style="text;html=1;strokeColor=none;fillColor=none;align=left;verticalAlign=middle;whiteSpace=wrap;rounded=0;" parent="rBeVfT0bV5Oy0sNMRI-G-1" vertex="1">
          <mxGeometry x="609" y="548" width="470" height="20" as="geometry" />
        </mxCell>
        <mxCell id="-eSUhl5G0mORqdFNdmGg-31" value="Scrollbar" style="rounded=0;whiteSpace=wrap;html=1;fillColor=#fff2cc;strokeColor=#d6b656;" parent="rBeVfT0bV5Oy0sNMRI-G-1" vertex="1">
          <mxGeometry x="520" y="598" width="80" height="30" as="geometry" />
        </mxCell>
        <mxCell id="-eSUhl5G0mORqdFNdmGg-32" value="This component is responsible to display scrolling messages" style="text;html=1;strokeColor=none;fillColor=none;align=left;verticalAlign=middle;whiteSpace=wrap;rounded=0;" parent="rBeVfT0bV5Oy0sNMRI-G-1" vertex="1">
          <mxGeometry x="609" y="603" width="470" height="20" as="geometry" />
        </mxCell>
        <mxCell id="elLXRMjT6-appqy8yJD7-0" value="&lt;b&gt;&lt;font style=&quot;font-size: 24px&quot;&gt;Application Components - Front End&lt;/font&gt;&lt;/b&gt;" style="text;whiteSpace=wrap;html=1;" parent="rBeVfT0bV5Oy0sNMRI-G-1" vertex="1">
          <mxGeometry x="330" y="70" width="460" height="30" as="geometry" />
        </mxCell>
      </root>
    </mxGraphModel>
  </diagram>
  <diagram id="Xg6j0yNr-qdBWKNFjqXm" name="React Components">
    <mxGraphModel dx="1834" dy="1191" grid="1" gridSize="10" guides="1" tooltips="1" connect="1" arrows="1" fold="1" page="1" pageScale="1" pageWidth="850" pageHeight="1100" math="0" shadow="0">
      <root>
        <mxCell id="JMBUsZ04B87GCaEwZhay-0" />
        <mxCell id="JMBUsZ04B87GCaEwZhay-1" parent="JMBUsZ04B87GCaEwZhay-0" />
        <mxCell id="16ZxiqGKAhtLK71ppfBJ-0" value="" style="rounded=0;whiteSpace=wrap;html=1;fillColor=#f5f5f5;strokeColor=#E84615;fontColor=#333333;strokeWidth=2;" parent="JMBUsZ04B87GCaEwZhay-1" vertex="1">
          <mxGeometry x="371" y="160" width="410" height="330" as="geometry" />
        </mxCell>
        <mxCell id="16ZxiqGKAhtLK71ppfBJ-1" value="" style="rounded=0;whiteSpace=wrap;html=1;strokeColor=#36393d;strokeWidth=2;fillColor=#ffff88;" parent="JMBUsZ04B87GCaEwZhay-1" vertex="1">
          <mxGeometry x="661" y="170" width="110" height="280" as="geometry" />
        </mxCell>
        <mxCell id="16ZxiqGKAhtLK71ppfBJ-2" value="MediaPlayer" style="rounded=0;whiteSpace=wrap;html=1;fillColor=#dae8fc;strokeColor=#6c8ebf;strokeWidth=2;" parent="JMBUsZ04B87GCaEwZhay-1" vertex="1">
          <mxGeometry x="381" y="170" width="270" height="280" as="geometry" />
        </mxCell>
        <mxCell id="16ZxiqGKAhtLK71ppfBJ-3" value="Scrollbar" style="rounded=0;whiteSpace=wrap;html=1;fillColor=#fff2cc;strokeColor=#d6b656;" parent="JMBUsZ04B87GCaEwZhay-1" vertex="1">
          <mxGeometry x="370" y="457" width="410" height="30" as="geometry" />
        </mxCell>
        <mxCell id="16ZxiqGKAhtLK71ppfBJ-4" value="Logo" style="rounded=0;whiteSpace=wrap;html=1;fillColor=#d5e8d4;strokeColor=#82b366;" parent="JMBUsZ04B87GCaEwZhay-1" vertex="1">
          <mxGeometry x="670" y="190" width="91" height="40" as="geometry" />
        </mxCell>
        <mxCell id="16ZxiqGKAhtLK71ppfBJ-5" value="Timer" style="rounded=0;whiteSpace=wrap;html=1;fillColor=#ffcc99;strokeColor=#36393d;" parent="JMBUsZ04B87GCaEwZhay-1" vertex="1">
          <mxGeometry x="670" y="240" width="90" height="30" as="geometry" />
        </mxCell>
        <mxCell id="16ZxiqGKAhtLK71ppfBJ-6" value="" style="rounded=0;whiteSpace=wrap;html=1;fillColor=#e1d5e7;strokeColor=#9673a6;align=center;verticalAlign=top;" parent="JMBUsZ04B87GCaEwZhay-1" vertex="1">
          <mxGeometry x="671" y="330" width="90" height="100" as="geometry" />
        </mxCell>
        <mxCell id="16ZxiqGKAhtLK71ppfBJ-7" value="Album Image" style="rounded=0;whiteSpace=wrap;html=1;fillColor=#f5f5f5;strokeColor=#666666;align=center;verticalAlign=top;fontColor=#333333;" parent="JMBUsZ04B87GCaEwZhay-1" vertex="1">
          <mxGeometry x="676" y="340" width="80" height="30" as="geometry" />
        </mxCell>
        <mxCell id="16ZxiqGKAhtLK71ppfBJ-8" value="Album Info" style="rounded=0;whiteSpace=wrap;html=1;fillColor=#cdeb8b;strokeColor=#36393d;align=center;verticalAlign=top;" parent="JMBUsZ04B87GCaEwZhay-1" vertex="1">
          <mxGeometry x="676" y="390" width="80" height="30" as="geometry" />
        </mxCell>
        <mxCell id="16ZxiqGKAhtLK71ppfBJ-9" value="&lt;font style=&quot;font-size: 16px&quot;&gt;React Components are as followed:&lt;/font&gt;" style="text;html=1;strokeColor=none;fillColor=none;align=left;verticalAlign=middle;whiteSpace=wrap;rounded=0;strokeWidth=3;" parent="JMBUsZ04B87GCaEwZhay-1" vertex="1">
          <mxGeometry x="40" y="120" width="280" height="20" as="geometry" />
        </mxCell>
        <mxCell id="16ZxiqGKAhtLK71ppfBJ-11" value="&lt;font style=&quot;font-size: 17px&quot;&gt;&lt;font style=&quot;font-size: 17px&quot;&gt;MediaPlaye&lt;/font&gt;r&lt;/font&gt;" style="rounded=0;whiteSpace=wrap;html=1;fillColor=#dae8fc;strokeColor=#6c8ebf;strokeWidth=2;" parent="JMBUsZ04B87GCaEwZhay-1" vertex="1">
          <mxGeometry x="60" y="200" width="180" height="20" as="geometry" />
        </mxCell>
        <mxCell id="16ZxiqGKAhtLK71ppfBJ-12" value="&lt;font style=&quot;font-size: 17px&quot;&gt;SideBar&lt;/font&gt;" style="rounded=0;whiteSpace=wrap;html=1;strokeColor=#36393d;strokeWidth=2;fillColor=#ffff88;" parent="JMBUsZ04B87GCaEwZhay-1" vertex="1">
          <mxGeometry x="60" y="240" width="180" height="20" as="geometry" />
        </mxCell>
        <mxCell id="16ZxiqGKAhtLK71ppfBJ-13" value="&lt;font style=&quot;font-size: 17px&quot;&gt;Logo&lt;/font&gt;" style="rounded=0;whiteSpace=wrap;html=1;fillColor=#d5e8d4;strokeColor=#82b366;" parent="JMBUsZ04B87GCaEwZhay-1" vertex="1">
          <mxGeometry x="80" y="280" width="160" height="20" as="geometry" />
        </mxCell>
        <mxCell id="16ZxiqGKAhtLK71ppfBJ-14" value="&lt;font style=&quot;font-size: 17px&quot;&gt;Timer&lt;/font&gt;" style="rounded=0;whiteSpace=wrap;html=1;fillColor=#ffcc99;strokeColor=#36393d;" parent="JMBUsZ04B87GCaEwZhay-1" vertex="1">
          <mxGeometry x="80" y="320" width="160" height="20" as="geometry" />
        </mxCell>
        <mxCell id="16ZxiqGKAhtLK71ppfBJ-16" value="&lt;font style=&quot;font-size: 17px&quot;&gt;Album&lt;/font&gt;" style="rounded=0;whiteSpace=wrap;html=1;fillColor=#e1d5e7;strokeColor=#9673a6;align=center;verticalAlign=middle;" parent="JMBUsZ04B87GCaEwZhay-1" vertex="1">
          <mxGeometry x="80" y="360" width="160" height="20" as="geometry" />
        </mxCell>
        <mxCell id="16ZxiqGKAhtLK71ppfBJ-17" value="&lt;font style=&quot;font-size: 17px&quot;&gt;AlbumImage&lt;/font&gt;" style="rounded=0;whiteSpace=wrap;html=1;fillColor=#f5f5f5;strokeColor=#666666;align=center;verticalAlign=middle;fontColor=#333333;" parent="JMBUsZ04B87GCaEwZhay-1" vertex="1">
          <mxGeometry x="120" y="400" width="120" height="20" as="geometry" />
        </mxCell>
        <mxCell id="16ZxiqGKAhtLK71ppfBJ-18" value="&lt;font style=&quot;font-size: 17px&quot;&gt;AlbumInfo&lt;/font&gt;" style="rounded=0;whiteSpace=wrap;html=1;fillColor=#cdeb8b;strokeColor=#36393d;align=center;verticalAlign=middle;" parent="JMBUsZ04B87GCaEwZhay-1" vertex="1">
          <mxGeometry x="120" y="440" width="120" height="20" as="geometry" />
        </mxCell>
        <mxCell id="16ZxiqGKAhtLK71ppfBJ-19" value="&lt;font style=&quot;font-size: 17px&quot;&gt;App&lt;/font&gt;" style="rounded=0;whiteSpace=wrap;html=1;fillColor=#f5f5f5;strokeColor=#666666;fontColor=#333333;strokeWidth=2;" parent="JMBUsZ04B87GCaEwZhay-1" vertex="1">
          <mxGeometry x="40" y="160" width="200" height="20" as="geometry" />
        </mxCell>
        <mxCell id="16ZxiqGKAhtLK71ppfBJ-20" value="&lt;font style=&quot;font-size: 17px&quot;&gt;Scrollbar&lt;/font&gt;" style="rounded=0;whiteSpace=wrap;html=1;fillColor=#fff2cc;strokeColor=#d6b656;" parent="JMBUsZ04B87GCaEwZhay-1" vertex="1">
          <mxGeometry x="60" y="480" width="180" height="20" as="geometry" />
        </mxCell>
        <mxCell id="AzRQUmkMlGTWt0svrA65-1" value="&lt;font style=&quot;font-size: 30px&quot;&gt;&lt;b&gt;React Components&lt;/b&gt;&lt;/font&gt;" style="text;html=1;strokeColor=none;fillColor=none;align=center;verticalAlign=middle;whiteSpace=wrap;rounded=0;" parent="JMBUsZ04B87GCaEwZhay-1" vertex="1">
          <mxGeometry x="200" y="40" width="450" height="40" as="geometry" />
        </mxCell>
        <mxCell id="zz5AhqjG0V8OLnH0SCav-0" value="" style="rounded=0;whiteSpace=wrap;html=1;strokeColor=#E84615;fontColor=#333333;strokeWidth=2;fillColor=#000000;" parent="JMBUsZ04B87GCaEwZhay-1" vertex="1">
          <mxGeometry x="371" y="570" width="410" height="330" as="geometry" />
        </mxCell>
        <mxCell id="zz5AhqjG0V8OLnH0SCav-1" value="" style="rounded=0;whiteSpace=wrap;html=1;strokeColor=#00B500;strokeWidth=2;" parent="JMBUsZ04B87GCaEwZhay-1" vertex="1">
          <mxGeometry x="661" y="720" width="110" height="140" as="geometry" />
        </mxCell>
        <mxCell id="zz5AhqjG0V8OLnH0SCav-2" value="MediaDisplay" style="rounded=0;whiteSpace=wrap;html=1;fillColor=#dae8fc;strokeColor=#6c8ebf;strokeWidth=2;" parent="JMBUsZ04B87GCaEwZhay-1" vertex="1">
          <mxGeometry x="381" y="580" width="270" height="280" as="geometry" />
        </mxCell>
        <mxCell id="zz5AhqjG0V8OLnH0SCav-3" value="Timer" style="rounded=0;whiteSpace=wrap;html=1;fillColor=#d5e8d4;strokeColor=#82b366;strokeWidth=2;" parent="JMBUsZ04B87GCaEwZhay-1" vertex="1">
          <mxGeometry x="660" y="658" width="111" height="42" as="geometry" />
        </mxCell>
        <mxCell id="zz5AhqjG0V8OLnH0SCav-4" value="Logo" style="ellipse;whiteSpace=wrap;html=1;aspect=fixed;" parent="JMBUsZ04B87GCaEwZhay-1" vertex="1">
          <mxGeometry x="686" y="580" width="60" height="60" as="geometry" />
        </mxCell>
        <mxCell id="zz5AhqjG0V8OLnH0SCav-5" value="Scrollbar" style="rounded=0;whiteSpace=wrap;html=1;fillColor=#fff2cc;strokeColor=#d6b656;" parent="JMBUsZ04B87GCaEwZhay-1" vertex="1">
          <mxGeometry x="376" y="866" width="400" height="30" as="geometry" />
        </mxCell>
        <mxCell id="zz5AhqjG0V8OLnH0SCav-6" value="AlbumInfo" style="rounded=0;whiteSpace=wrap;html=1;fillColor=#e1d5e7;strokeColor=#9673a6;" parent="JMBUsZ04B87GCaEwZhay-1" vertex="1">
          <mxGeometry x="665" y="785" width="100" height="70" as="geometry" />
        </mxCell>
        <mxCell id="zz5AhqjG0V8OLnH0SCav-7" value="AlbumImage" style="rounded=0;whiteSpace=wrap;html=1;fillColor=#f5f5f5;strokeColor=#666666;fontColor=#333333;" parent="JMBUsZ04B87GCaEwZhay-1" vertex="1">
          <mxGeometry x="665" y="725" width="100" height="55" as="geometry" />
        </mxCell>
      </root>
    </mxGraphModel>
  </diagram>
  <diagram id="ieazDRRnpsgqnpplhfSH" name="Component Definition">
    <mxGraphModel dx="1834" dy="1191" grid="1" gridSize="10" guides="1" tooltips="1" connect="1" arrows="1" fold="1" page="1" pageScale="1" pageWidth="850" pageHeight="1100" math="0" shadow="0">
      <root>
        <mxCell id="hTra5iNffyYA3gYZ2q_J-0" />
        <mxCell id="hTra5iNffyYA3gYZ2q_J-1" parent="hTra5iNffyYA3gYZ2q_J-0" />
        <mxCell id="AAd8hIiUH9Ao7WwSQ5aH-0" value="&lt;font size=&quot;1&quot;&gt;&lt;b style=&quot;font-size: 28px&quot;&gt;Component Definition&lt;/b&gt;&lt;/font&gt;" style="text;html=1;strokeColor=none;fillColor=none;align=left;verticalAlign=middle;whiteSpace=wrap;rounded=0;strokeWidth=3;" parent="hTra5iNffyYA3gYZ2q_J-1" vertex="1">
          <mxGeometry x="660" y="40" width="410" height="20" as="geometry" />
        </mxCell>
        <mxCell id="AAd8hIiUH9Ao7WwSQ5aH-1" value="&lt;font style=&quot;font-size: 17px&quot;&gt;&lt;font style=&quot;font-size: 17px&quot;&gt;MediaPlaye&lt;/font&gt;r&lt;/font&gt;" style="rounded=0;whiteSpace=wrap;html=1;fillColor=#dae8fc;strokeColor=#6c8ebf;strokeWidth=2;" parent="hTra5iNffyYA3gYZ2q_J-1" vertex="1">
          <mxGeometry x="40" y="120" width="180" height="20" as="geometry" />
        </mxCell>
        <mxCell id="AAd8hIiUH9Ao7WwSQ5aH-2" value="&lt;font style=&quot;font-size: 17px&quot;&gt;SideBar&lt;/font&gt;" style="rounded=0;whiteSpace=wrap;html=1;strokeColor=#36393d;strokeWidth=2;fillColor=#ffff88;" parent="hTra5iNffyYA3gYZ2q_J-1" vertex="1">
          <mxGeometry x="1080" y="340" width="180" height="20" as="geometry" />
        </mxCell>
        <mxCell id="AAd8hIiUH9Ao7WwSQ5aH-3" value="&lt;font style=&quot;font-size: 17px&quot;&gt;Logo&lt;/font&gt;" style="rounded=0;whiteSpace=wrap;html=1;fillColor=#d5e8d4;strokeColor=#82b366;" parent="hTra5iNffyYA3gYZ2q_J-1" vertex="1">
          <mxGeometry x="40" y="330" width="170" height="20" as="geometry" />
        </mxCell>
        <mxCell id="AAd8hIiUH9Ao7WwSQ5aH-4" value="&lt;font style=&quot;font-size: 17px&quot;&gt;Timer&lt;/font&gt;" style="rounded=0;whiteSpace=wrap;html=1;fillColor=#ffcc99;strokeColor=#36393d;" parent="hTra5iNffyYA3gYZ2q_J-1" vertex="1">
          <mxGeometry x="40" y="480" width="160" height="20" as="geometry" />
        </mxCell>
        <mxCell id="AAd8hIiUH9Ao7WwSQ5aH-5" value="&lt;font style=&quot;font-size: 17px&quot;&gt;Album&lt;/font&gt;" style="rounded=0;whiteSpace=wrap;html=1;fillColor=#e1d5e7;strokeColor=#9673a6;align=center;verticalAlign=middle;" parent="hTra5iNffyYA3gYZ2q_J-1" vertex="1">
          <mxGeometry x="1080" y="480" width="140" height="20" as="geometry" />
        </mxCell>
        <mxCell id="AAd8hIiUH9Ao7WwSQ5aH-6" value="&lt;font style=&quot;font-size: 17px&quot;&gt;AlbumImage&lt;/font&gt;" style="rounded=0;whiteSpace=wrap;html=1;fillColor=#f5f5f5;strokeColor=#666666;align=center;verticalAlign=middle;fontColor=#333333;" parent="hTra5iNffyYA3gYZ2q_J-1" vertex="1">
          <mxGeometry x="40" y="680" width="120" height="20" as="geometry" />
        </mxCell>
        <mxCell id="AAd8hIiUH9Ao7WwSQ5aH-7" value="&lt;font style=&quot;font-size: 17px&quot;&gt;AlbumInfo&lt;/font&gt;" style="rounded=0;whiteSpace=wrap;html=1;fillColor=#cdeb8b;strokeColor=#36393d;align=center;verticalAlign=middle;" parent="hTra5iNffyYA3gYZ2q_J-1" vertex="1">
          <mxGeometry x="40" y="840" width="120" height="20" as="geometry" />
        </mxCell>
        <mxCell id="AAd8hIiUH9Ao7WwSQ5aH-8" value="&lt;font style=&quot;font-size: 17px&quot;&gt;App&lt;/font&gt;" style="rounded=0;whiteSpace=wrap;html=1;fillColor=#f5f5f5;strokeColor=#666666;fontColor=#333333;strokeWidth=2;" parent="hTra5iNffyYA3gYZ2q_J-1" vertex="1">
          <mxGeometry x="1080" y="120" width="200" height="20" as="geometry" />
        </mxCell>
        <mxCell id="AAd8hIiUH9Ao7WwSQ5aH-9" value="&lt;font style=&quot;font-size: 17px&quot;&gt;Scrollbar&lt;/font&gt;" style="rounded=0;whiteSpace=wrap;html=1;fillColor=#fff2cc;strokeColor=#d6b656;" parent="hTra5iNffyYA3gYZ2q_J-1" vertex="1">
          <mxGeometry x="1080" y="680" width="180" height="20" as="geometry" />
        </mxCell>
        <mxCell id="AAd8hIiUH9Ao7WwSQ5aH-10" value="&lt;ul&gt;&lt;li&gt;&lt;span&gt;This component renders two type of contents:&lt;/span&gt;&lt;/li&gt;&lt;ul&gt;&lt;li&gt;Short video (ex. movie clips, music-video, video clips, etc)&lt;/li&gt;&lt;li&gt;Short presentation (ex. animated powerpoint presentation)&lt;/li&gt;&lt;/ul&gt;&lt;/ul&gt;&lt;ul&gt;&lt;li&gt;Each content has a duration. When the time elapse a new content is rendered by the MediaPlayer component.&lt;/li&gt;&lt;/ul&gt;&lt;div&gt;&lt;b&gt;Questions&lt;/b&gt;&lt;/div&gt;&lt;ul&gt;&lt;li&gt;How does the component know when the content time expires?&lt;/li&gt;&lt;li&gt;What does the component do when after the content expires?&lt;/li&gt;&lt;li&gt;&amp;nbsp;&lt;/li&gt;&lt;/ul&gt;&lt;p&gt;&lt;/p&gt;" style="text;html=1;strokeColor=none;fillColor=none;spacing=5;spacingTop=-20;whiteSpace=wrap;overflow=hidden;rounded=0;" parent="hTra5iNffyYA3gYZ2q_J-1" vertex="1">
          <mxGeometry x="40" y="160" width="440" height="150" as="geometry" />
        </mxCell>
        <mxCell id="i5wFpN22f08Kc-kU-4Ul-0" value="&lt;ul&gt;&lt;li&gt;&lt;span&gt;This component renders the logo on the top right corner of the screen&lt;/span&gt;&lt;/li&gt;&lt;/ul&gt;&lt;div&gt;&lt;b&gt;Questions&lt;/b&gt;&lt;/div&gt;&lt;ul&gt;&lt;li&gt;&amp;nbsp;Where does the component obtain the logo?&lt;/li&gt;&lt;li&gt;Does the component receive the logo from another component?&lt;/li&gt;&lt;/ul&gt;&lt;p&gt;&lt;/p&gt;" style="text;html=1;strokeColor=none;fillColor=none;spacing=5;spacingTop=-20;whiteSpace=wrap;overflow=hidden;rounded=0;" parent="hTra5iNffyYA3gYZ2q_J-1" vertex="1">
          <mxGeometry x="40" y="370" width="440" height="90" as="geometry" />
        </mxCell>
        <mxCell id="i5wFpN22f08Kc-kU-4Ul-1" value="&lt;ul&gt;&lt;li&gt;&lt;span&gt;This component renders the current time on the top right corner of the screen&lt;/span&gt;&lt;/li&gt;&lt;li&gt;&lt;span&gt;The time shown is based on the geographic location where the display is currently located.&amp;nbsp;&lt;/span&gt;&lt;/li&gt;&lt;li&gt;&lt;span&gt;The component displays the time in the form of 00:00:00&lt;/span&gt;&lt;/li&gt;&lt;/ul&gt;&lt;div&gt;&lt;b&gt;Questions&lt;/b&gt;&lt;/div&gt;&lt;ul&gt;&lt;li&gt;&amp;nbsp;Where does the component obtain the time?&lt;/li&gt;&lt;li&gt;Does the component receive the time from another component?&lt;/li&gt;&lt;/ul&gt;&lt;p&gt;&lt;/p&gt;" style="text;html=1;strokeColor=none;fillColor=none;spacing=5;spacingTop=-20;whiteSpace=wrap;overflow=hidden;rounded=0;" parent="hTra5iNffyYA3gYZ2q_J-1" vertex="1">
          <mxGeometry x="40" y="520" width="440" height="150" as="geometry" />
        </mxCell>
        <mxCell id="i5wFpN22f08Kc-kU-4Ul-2" value="" style="endArrow=none;html=1;strokeWidth=3;" parent="hTra5iNffyYA3gYZ2q_J-1" edge="1">
          <mxGeometry width="50" height="50" relative="1" as="geometry">
            <mxPoint x="520" y="1055" as="sourcePoint" />
            <mxPoint x="520" y="95" as="targetPoint" />
          </mxGeometry>
        </mxCell>
        <mxCell id="i5wFpN22f08Kc-kU-4Ul-3" value="&lt;ul&gt;&lt;li&gt;&lt;span&gt;This component renders the image of the album that is currently been played.&lt;/span&gt;&amp;nbsp;&lt;/li&gt;&lt;/ul&gt;&lt;div&gt;&lt;b&gt;Questions&lt;/b&gt;&lt;/div&gt;&lt;ul&gt;&lt;li&gt;&amp;nbsp;Where does the component obtain the image?&lt;/li&gt;&lt;li&gt;Does the component receive the image from another component?&lt;/li&gt;&lt;/ul&gt;&lt;p&gt;&lt;/p&gt;" style="text;html=1;strokeColor=none;fillColor=none;spacing=5;spacingTop=-20;whiteSpace=wrap;overflow=hidden;rounded=0;" parent="hTra5iNffyYA3gYZ2q_J-1" vertex="1">
          <mxGeometry x="40" y="720" width="440" height="110" as="geometry" />
        </mxCell>
        <mxCell id="i5wFpN22f08Kc-kU-4Ul-4" value="&lt;ul&gt;&lt;li&gt;&lt;span&gt;This component renders the album information that is currently been played.&lt;/span&gt;&amp;nbsp;&lt;/li&gt;&lt;/ul&gt;&lt;div&gt;&lt;b&gt;Questions&lt;/b&gt;&lt;/div&gt;&lt;ul&gt;&lt;li&gt;&amp;nbsp;Where does the component obtain the image?&lt;/li&gt;&lt;li&gt;Does the component receive the information from another component?&lt;/li&gt;&lt;li&gt;What information does the component renders on the screen?&lt;/li&gt;&lt;/ul&gt;&lt;p&gt;&lt;/p&gt;" style="text;html=1;strokeColor=none;fillColor=none;spacing=5;spacingTop=-20;whiteSpace=wrap;overflow=hidden;rounded=0;" parent="hTra5iNffyYA3gYZ2q_J-1" vertex="1">
          <mxGeometry x="40" y="880" width="440" height="120" as="geometry" />
        </mxCell>
        <mxCell id="i5wFpN22f08Kc-kU-4Ul-5" value="&lt;span style=&quot;font-size: 17px&quot;&gt;VideoPlayer&lt;/span&gt;" style="rounded=0;whiteSpace=wrap;html=1;fillColor=#dae8fc;strokeColor=#6c8ebf;strokeWidth=2;" parent="hTra5iNffyYA3gYZ2q_J-1" vertex="1">
          <mxGeometry x="560" y="120" width="180" height="20" as="geometry" />
        </mxCell>
        <mxCell id="i5wFpN22f08Kc-kU-4Ul-10" value="&lt;ul&gt;&lt;li&gt;&lt;span&gt;This component plays the video that is selected.&lt;/span&gt;&lt;/li&gt;&lt;li&gt;&amp;nbsp;NOT SURE IT IS NEEDED&lt;/li&gt;&lt;/ul&gt;&lt;div&gt;&lt;b&gt;Questions&lt;/b&gt;&lt;/div&gt;&lt;ul&gt;&lt;li&gt;&lt;br&gt;&lt;/li&gt;&lt;/ul&gt;&lt;p&gt;&lt;/p&gt;" style="text;html=1;strokeColor=none;fillColor=none;spacing=5;spacingTop=-20;whiteSpace=wrap;overflow=hidden;rounded=0;" parent="hTra5iNffyYA3gYZ2q_J-1" vertex="1">
          <mxGeometry x="560" y="160" width="440" height="150" as="geometry" />
        </mxCell>
        <mxCell id="i5wFpN22f08Kc-kU-4Ul-15" value="" style="endArrow=none;html=1;strokeWidth=3;" parent="hTra5iNffyYA3gYZ2q_J-1" edge="1">
          <mxGeometry width="50" height="50" relative="1" as="geometry">
            <mxPoint x="1040" y="1050" as="sourcePoint" />
            <mxPoint x="1040" y="90" as="targetPoint" />
          </mxGeometry>
        </mxCell>
        <mxCell id="i5wFpN22f08Kc-kU-4Ul-16" value="&lt;span style=&quot;font-size: 17px&quot;&gt;MusicPlayer&lt;/span&gt;" style="rounded=0;whiteSpace=wrap;html=1;fillColor=#dae8fc;strokeColor=#6c8ebf;strokeWidth=2;" parent="hTra5iNffyYA3gYZ2q_J-1" vertex="1">
          <mxGeometry x="560" y="340" width="180" height="20" as="geometry" />
        </mxCell>
        <mxCell id="i5wFpN22f08Kc-kU-4Ul-17" value="&lt;ul&gt;&lt;li&gt;&lt;span&gt;This component plays the album currently shown on the screen&lt;/span&gt;&lt;/li&gt;&lt;/ul&gt;&lt;div&gt;&lt;b&gt;Questions&lt;/b&gt;&lt;/div&gt;&lt;ul&gt;&lt;li&gt;&lt;br&gt;&lt;/li&gt;&lt;/ul&gt;&lt;p&gt;&lt;/p&gt;" style="text;html=1;strokeColor=none;fillColor=none;spacing=5;spacingTop=-20;whiteSpace=wrap;overflow=hidden;rounded=0;" parent="hTra5iNffyYA3gYZ2q_J-1" vertex="1">
          <mxGeometry x="560" y="380" width="440" height="150" as="geometry" />
        </mxCell>
        <mxCell id="i5wFpN22f08Kc-kU-4Ul-18" value="&lt;ul&gt;&lt;li&gt;&lt;span&gt;This component is the application component. It is the parent of all the component.&lt;/span&gt;&lt;/li&gt;&lt;/ul&gt;&lt;div&gt;&lt;b&gt;Questions&lt;/b&gt;&lt;/div&gt;&lt;ul&gt;&lt;li&gt;&lt;br&gt;&lt;/li&gt;&lt;/ul&gt;&lt;p&gt;&lt;/p&gt;" style="text;html=1;strokeColor=none;fillColor=none;spacing=5;spacingTop=-20;whiteSpace=wrap;overflow=hidden;rounded=0;" parent="hTra5iNffyYA3gYZ2q_J-1" vertex="1">
          <mxGeometry x="1080" y="160" width="440" height="100" as="geometry" />
        </mxCell>
        <mxCell id="i5wFpN22f08Kc-kU-4Ul-19" value="&lt;ul&gt;&lt;li&gt;&lt;span&gt;This component is the parent of the AlbumImage and AlbumInfo components&lt;/span&gt;&lt;/li&gt;&lt;/ul&gt;&lt;div&gt;&lt;b&gt;Questions&lt;/b&gt;&lt;/div&gt;&lt;ul&gt;&lt;li&gt;&lt;br&gt;&lt;/li&gt;&lt;/ul&gt;&lt;p&gt;&lt;/p&gt;" style="text;html=1;strokeColor=none;fillColor=none;spacing=5;spacingTop=-20;whiteSpace=wrap;overflow=hidden;rounded=0;" parent="hTra5iNffyYA3gYZ2q_J-1" vertex="1">
          <mxGeometry x="1080" y="520" width="440" height="150" as="geometry" />
        </mxCell>
        <mxCell id="i5wFpN22f08Kc-kU-4Ul-20" value="&lt;ul&gt;&lt;li&gt;&lt;span&gt;This component plays the album currently shown on the screen&lt;/span&gt;&lt;/li&gt;&lt;/ul&gt;&lt;div&gt;&lt;b&gt;Questions&lt;/b&gt;&lt;/div&gt;&lt;ul&gt;&lt;li&gt;&lt;br&gt;&lt;/li&gt;&lt;/ul&gt;&lt;p&gt;&lt;/p&gt;" style="text;html=1;strokeColor=none;fillColor=none;spacing=5;spacingTop=-20;whiteSpace=wrap;overflow=hidden;rounded=0;" parent="hTra5iNffyYA3gYZ2q_J-1" vertex="1">
          <mxGeometry x="1080" y="720" width="440" height="150" as="geometry" />
        </mxCell>
        <mxCell id="i5wFpN22f08Kc-kU-4Ul-21" value="&lt;ul&gt;&lt;li&gt;&lt;span&gt;This component is the parent of the components that are display on the right side of the screen&lt;/span&gt;&lt;/li&gt;&lt;/ul&gt;&lt;div&gt;&lt;b&gt;Questions&lt;/b&gt;&lt;/div&gt;&lt;ul&gt;&lt;li&gt;&lt;br&gt;&lt;/li&gt;&lt;/ul&gt;&lt;p&gt;&lt;/p&gt;" style="text;html=1;strokeColor=none;fillColor=none;spacing=5;spacingTop=-20;whiteSpace=wrap;overflow=hidden;rounded=0;" parent="hTra5iNffyYA3gYZ2q_J-1" vertex="1">
          <mxGeometry x="1080" y="380" width="440" height="90" as="geometry" />
        </mxCell>
      </root>
    </mxGraphModel>
  </diagram>
</mxfile>
